<svg id="visual" viewBox="0 0 900 600" width="900" height="600" xmlns="http://www.w3.org/2000/svg" xmlns:xlink="http://www.w3.org/1999/xlink" version="1.1"><path d="M0 472L25 478.8C50 485.7 100 499.3 150 483.7C200 468 250 423 300 413.7C350 404.3 400 430.7 450 450C500 469.3 550 481.7 600 474.3C650 467 700 440 750 432C800 424 850 435 875 440.5L900 446L900 601L875 601C850 601 800 601 750 601C700 601 650 601 600 601C550 601 500 601 450 601C400 601 350 601 300 601C250 601 200 601 150 601C100 601 50 601 25 601L0 601Z" fill="#f4f4f4" stroke-linecap="round" stroke-linejoin="miter"></path></svg>